<mxfile host="app.diagrams.net" agent="Mozilla/5.0 (Macintosh; Intel Mac OS X 10_15_7) AppleWebKit/537.36 (KHTML, like Gecko) Chrome/127.0.0.0 Safari/537.36" version="24.7.6">
  <diagram name="Page-1" id="3RxOVsXBuSp3tvmZEGbG">
    <mxGraphModel dx="954" dy="601" grid="1" gridSize="10" guides="1" tooltips="1" connect="1" arrows="1" fold="1" page="1" pageScale="1" pageWidth="850" pageHeight="1100" math="0" shadow="0">
      <root>
        <mxCell id="0" />
        <mxCell id="1" parent="0" />
        <mxCell id="TKVN5FmSmi49Xbwbxt-u-4" value="" style="rounded=1;whiteSpace=wrap;html=1;" vertex="1" parent="1">
          <mxGeometry x="60" y="80" width="730" height="410" as="geometry" />
        </mxCell>
        <mxCell id="TKVN5FmSmi49Xbwbxt-u-6" value="NODE" style="rounded=1;whiteSpace=wrap;html=1;" vertex="1" parent="1">
          <mxGeometry x="110" y="115" width="350" height="345" as="geometry" />
        </mxCell>
        <mxCell id="TKVN5FmSmi49Xbwbxt-u-7" value="NODE" style="rounded=1;whiteSpace=wrap;html=1;" vertex="1" parent="1">
          <mxGeometry x="500" y="130" width="240" height="60" as="geometry" />
        </mxCell>
        <mxCell id="TKVN5FmSmi49Xbwbxt-u-8" value="NODE" style="rounded=1;whiteSpace=wrap;html=1;" vertex="1" parent="1">
          <mxGeometry x="500" y="210" width="240" height="60" as="geometry" />
        </mxCell>
        <mxCell id="TKVN5FmSmi49Xbwbxt-u-9" value="NODE" style="rounded=1;whiteSpace=wrap;html=1;" vertex="1" parent="1">
          <mxGeometry x="500" y="280" width="240" height="60" as="geometry" />
        </mxCell>
        <mxCell id="TKVN5FmSmi49Xbwbxt-u-11" value="" style="rounded=0;whiteSpace=wrap;html=1;" vertex="1" parent="1">
          <mxGeometry x="140" y="150" width="300" height="110" as="geometry" />
        </mxCell>
        <mxCell id="TKVN5FmSmi49Xbwbxt-u-15" value="" style="edgeStyle=orthogonalEdgeStyle;rounded=0;orthogonalLoop=1;jettySize=auto;html=1;" edge="1" parent="1" source="TKVN5FmSmi49Xbwbxt-u-12" target="TKVN5FmSmi49Xbwbxt-u-13">
          <mxGeometry relative="1" as="geometry" />
        </mxCell>
        <mxCell id="TKVN5FmSmi49Xbwbxt-u-12" value="POD" style="rounded=1;whiteSpace=wrap;html=1;" vertex="1" parent="1">
          <mxGeometry x="140" y="350" width="150" height="60" as="geometry" />
        </mxCell>
        <mxCell id="TKVN5FmSmi49Xbwbxt-u-13" value="POD" style="rounded=1;whiteSpace=wrap;html=1;" vertex="1" parent="1">
          <mxGeometry x="300" y="350" width="140" height="60" as="geometry" />
        </mxCell>
        <mxCell id="TKVN5FmSmi49Xbwbxt-u-16" value="Container" style="rounded=1;whiteSpace=wrap;html=1;" vertex="1" parent="1">
          <mxGeometry x="160" y="175" width="120" height="60" as="geometry" />
        </mxCell>
        <mxCell id="TKVN5FmSmi49Xbwbxt-u-17" value="Container&lt;div&gt;&lt;br&gt;&lt;/div&gt;" style="rounded=1;whiteSpace=wrap;html=1;" vertex="1" parent="1">
          <mxGeometry x="300" y="175" width="120" height="60" as="geometry" />
        </mxCell>
        <mxCell id="TKVN5FmSmi49Xbwbxt-u-18" value="Kubernetes Cluster" style="rounded=1;whiteSpace=wrap;html=1;" vertex="1" parent="1">
          <mxGeometry x="323" y="10" width="205" height="60" as="geometry" />
        </mxCell>
      </root>
    </mxGraphModel>
  </diagram>
</mxfile>
